<svg xmlns="http://www.w3.org/2000/svg" xmlns:xlink="http://www.w3.org/1999/xlink" width="70" height="70"
     viewBox="0 0 70 70">
    <defs>
        <path id="a" d="M4 0h61c4 0 5 1 5 5v60c0 4-1 5-5 5H4c-3 0-4-1-4-5V5c0-4 1-5 4-5z"/>
        <linearGradient id="c" x1="98.162%" x2="0%" y1="1.838%" y2="100%">
            <stop offset="0%" stop-color="#9b688c"/>
            <stop offset="50.799%" stop-color="#865b7a"/>
            <stop offset="100%" stop-color="#754f6b"/>
        </linearGradient>
    </defs>
    <g fill="none" fill-rule="evenodd">
        <mask id="b" fill="#fff">
            <use xlink:href="#a"/>
        </mask>
        <g mask="url(#b)">
            <path fill="url(#c)" d="M0 0H70V70H0z"/>
            <path fill="#FFF" fill-opacity=".383" d="M4 1h61c2.667 0 4.333.667 5 2V0H0v3c.667-1.333 2-2 4-2z"/>
            <path fill="#000" fill-opacity=".383" d="M4 69h61c2.667 0 4.333-1 5-3v4H0v-4c.667 2 2 3 4 3z"/>
  <g id="svg_7" opacity=".324">
         <rect transform="rotate(45 51.70408248901368,40.55332946777344) " id="svg_5" height="10.06579" width="10.27952" y="35.52043" x="46.56432" stroke-width="0.11925" fill="#393939"/>
   <rect id="svg_4" height="22.19957" width="27.83418" y="20.44101" x="22.47885" stroke-width="0.11925" fill="#393939"/>
   <rect transform="rotate(45 19.17783355712894,54.73860549926757) " id="svg_2" height="50.3191" width="54.33294" y="29.57906" x="-7.98864" stroke-width="0.11925" fill="#393939"/>
   <rect id="svg_3" height="6.37893" width="13.70558" y="44.81713" x="42.1066" stroke-width="0.11925" fill="#393939"/>
  </g>
  <path fill="#000000" stroke-width="0.11925" d="m33.18641,60.92094c-4.8281,-0.34174 -9.45363,-2.06205 -13.3072,-4.94917c-1.29106,-0.96727 -2.97207,-2.55547 -3.95671,-3.73827c-3.38066,-4.061 -5.2621,-8.71312 -5.6267,-13.91278c-0.06868,-0.97933 -0.03183,-2.97625 0.07277,-3.94438c0.47368,-4.38408 2.06046,-8.4141 4.69637,-11.92762c1.11819,-1.49049 2.63928,-3.0741 4.09586,-4.26421c3.61643,-2.95483 8.04618,-4.81799 12.82104,-5.39253c1.76672,-0.21259 4.15383,-0.20286 5.97562,0.02434c8.82019,1.09999 16.33794,6.75511 19.71273,14.82859c1.71422,4.10091 2.25113,8.70844 1.51805,13.02732c-0.10415,0.61361 -0.2573,1.37785 -0.33085,1.65099l-0.04745,0.17622l-0.41505,-0.48327c-1.09395,-1.27373 -2.46773,-2.32556 -3.99857,-3.06149c-1.44971,-0.69692 -2.761,-1.05096 -4.39553,-1.18676l-0.66373,-0.05515l-0.00158,-1.11317c-0.00357,-2.35886 -0.4645,-4.29191 -1.51263,-6.34135c-0.71009,-1.38849 -1.42084,-2.35137 -2.60984,-3.5357c-1.16503,-1.16045 -2.16831,-1.89914 -3.54734,-2.61182c-4.98174,-2.57456 -11.08278,-2.06073 -15.56038,1.31049c-2.53568,1.90914 -4.36064,4.61652 -5.15132,7.64213c-0.9923,3.79716 -0.32832,7.81074 1.83489,11.09128c1.3917,2.11054 3.25115,3.75271 5.55567,4.90648c1.55012,0.77607 3.0246,1.22489 4.77105,1.45226c0.6922,0.09012 2.31162,0.11748 3.12952,0.05287l0.46057,-0.0364l0,0.22563c0,0.67467 0.23076,2.0628 0.49727,2.99133c0.64833,2.25881 2.08402,4.48653 3.85411,5.98028c0.20484,0.17286 0.37243,0.33045 0.37243,0.3502c0,0.09902 -2.19123,0.54383 -3.44838,0.7c-1.50176,0.18656 -3.38929,0.24311 -4.79466,0.14364l-0.00003,0.00002zm15.13981,-0.28505c-1.69095,-0.08858 -3.46824,-0.64464 -4.93329,-1.54349c-1.67245,-1.0261 -3.09165,-2.55131 -3.9718,-4.2685c-0.80277,-1.56619 -1.16429,-3.09425 -1.16189,-4.91109c0.00258,-1.95171 0.49631,-3.75274 1.48142,-5.4039c1.87979,-3.15071 5.16324,-5.09956 8.84537,-5.25006c4.56624,-0.18663 8.79061,2.58728 10.44119,6.85616c1.44627,3.74049 0.65109,8.02316 -2.04045,10.98937c-2.22572,2.45284 -5.30236,3.7074 -8.66055,3.53151zm7.36915,-10.67098l0,-1.46438l-6.61334,0l-6.61333,0l0,1.46438l0,1.46438l6.61333,0l6.61334,0l0,-1.46438z" id="svg_1" opacity="0.3"/>
            <path stroke="null" fill="#ffffff" stroke-width="0.11925" d="m33.18641,59.11677c-4.8281,-0.34174 -9.45363,-2.06205 -13.30721,-4.94917c-1.29105,-0.96727 -2.97207,-2.55547 -3.95671,-3.73827c-3.38066,-4.06101 -5.2621,-8.71313 -5.6267,-13.91278c-0.06867,-0.97933 -0.03183,-2.97625 0.07277,-3.94438c0.47369,-4.38408 2.06046,-8.4141 4.69637,-11.92762c1.11819,-1.49049 2.63928,-3.0741 4.09586,-4.26421c3.61643,-2.95483 8.04618,-4.81798 12.82104,-5.39253c1.76672,-0.21258 4.15383,-0.20286 5.97562,0.02434c8.82019,1.1 16.33794,6.75511 19.71274,14.82859c1.71421,4.10091 2.25112,8.70844 1.51804,13.02732c-0.10415,0.61361 -0.2573,1.37786 -0.33085,1.651l-0.04745,0.17622l-0.41505,-0.48327c-1.09395,-1.27373 -2.46772,-2.32556 -3.99857,-3.06149c-1.44971,-0.69692 -2.76101,-1.05097 -4.39553,-1.18676l-0.66372,-0.05515l-0.00158,-1.11317c-0.00357,-2.35886 -0.4645,-4.29191 -1.51263,-6.34135c-0.71009,-1.38848 -1.42084,-2.35137 -2.60984,-3.5357c-1.16503,-1.16045 -2.16831,-1.89914 -3.54734,-2.61182c-4.98174,-2.57456 -11.08278,-2.06073 -15.56038,1.31049c-2.53568,1.90914 -4.36064,4.61652 -5.15132,7.64212c-0.99231,3.79716 -0.32832,7.81074 1.83488,11.09128c1.3917,2.11055 3.25115,3.75272 5.55567,4.90648c1.55012,0.77608 3.0246,1.22489 4.77105,1.45227c0.6922,0.09012 2.31163,0.11748 3.12953,0.05287l0.46057,-0.0364l0,0.22562c0,0.67467 0.23075,2.0628 0.49727,2.99134c0.64833,2.25881 2.08402,4.48653 3.85411,5.98028c0.20484,0.17286 0.37244,0.33045 0.37244,0.3502c0,0.09902 -2.19124,0.54383 -3.44839,0.7c-1.50176,0.18656 -3.38929,0.24311 -4.79466,0.14364l-0.00002,0.00002zm15.13981,-0.28505c-1.69095,-0.08857 -3.46824,-0.64464 -4.93329,-1.54349c-1.67245,-1.0261 -3.09165,-2.55131 -3.97181,-4.26849c-0.80277,-1.56619 -1.16428,-3.09425 -1.16189,-4.9111c0.00257,-1.95171 0.49631,-3.75274 1.48142,-5.40389c1.87978,-3.15071 5.16323,-5.09956 8.84537,-5.25006c4.56624,-0.18663 8.79061,2.58728 10.44119,6.85616c1.44627,3.7405 0.65109,8.02316 -2.04045,10.98937c-2.22572,2.45284 -5.30236,3.70741 -8.66055,3.53151zm7.36914,-10.67098l0,-1.46438l-6.61333,0l-6.61334,0l0,1.46438l0,1.46438l6.61334,0l6.61333,0l0,-1.46438z" id="path14224"/>        </g>
    </g>
</svg>
